<svg version="1.1" xmlns="http://www.w3.org/2000/svg" xmlns:xlink="http://www.w3.org/1999/xlink" width="298.01172" height="89" viewBox="0,0,298.01172,89"><defs><linearGradient x1="368.63086" y1="161.51065" x2="368.63086" y2="210.01065" gradientUnits="userSpaceOnUse" id="color-1"><stop offset="0" stop-color="#ffb25a"/><stop offset="1" stop-color="#ff8900"/></linearGradient><linearGradient x1="134.99414" y1="139.99503" x2="134.99414" y2="220.99503" gradientUnits="userSpaceOnUse" id="color-2"><stop offset="0" stop-color="#ffb25a"/><stop offset="1" stop-color="#ff8900"/></linearGradient><linearGradient x1="134.99414" y1="146.99503" x2="134.99414" y2="213.99503" gradientUnits="userSpaceOnUse" id="color-3"><stop offset="0" stop-color="#ffb25a"/><stop offset="1" stop-color="#ff7e00"/></linearGradient><linearGradient x1="206.63086" y1="165.51065" x2="206.63086" y2="214.01065" gradientUnits="userSpaceOnUse" id="color-4"><stop offset="0" stop-color="#ffb25a"/><stop offset="1" stop-color="#ff8900"/></linearGradient><linearGradient x1="239.13086" y1="166.01065" x2="239.13086" y2="214.51065" gradientUnits="userSpaceOnUse" id="color-5"><stop offset="0" stop-color="#ffb25a"/><stop offset="1" stop-color="#ff8900"/></linearGradient><linearGradient x1="310.69822" y1="205.31736" x2="297.29006" y2="139.6727" gradientUnits="userSpaceOnUse" id="color-6"><stop offset="0" stop-color="#ffb25a"/><stop offset="1" stop-color="#ff7e00"/></linearGradient><linearGradient x1="306.26758" y1="194.02628" x2="306.26758" y2="213.12323" gradientUnits="userSpaceOnUse" id="color-7"><stop offset="0" stop-color="#ffa43c"/><stop offset="1" stop-color="#ffb25a"/></linearGradient></defs><g transform="translate(-90.99414,-135.99503)"><g data-paper-data="{&quot;isPaintingLayer&quot;:true}" fill-rule="nonzero" stroke-linejoin="miter" stroke-miterlimit="10" stroke-dasharray="" stroke-dashoffset="0" style="mix-blend-mode: normal"><path d="M352.50586,209.76065l-0.25,-48.25c0,0 -0.77157,-9.83506 2.39416,-14.76533c3.29959,-5.13873 10.59582,-6.1309 13.36064,-6.10963c2.51198,0.01933 9.79611,0.15394 13.1319,4.85029c3.85622,5.42905 3.6133,16.27468 3.6133,16.27468l0.25,48.25" fill="none" stroke="url(#color-1)" stroke-width="8" stroke-linecap="round"/><path d="M174.99414,180.49503c0,-22.36753 -17.90861,-40.5 -40,-40.5c-22.09139,0 -40,18.13247 -40,40.5c0,22.36753 17.90861,40.5 40,40.5c22.09139,0 40,-18.13247 40,-40.5z" fill="none" stroke="url(#color-2)" stroke-width="8" stroke-linecap="butt"/><path d="M168.08056,180.49503c0,-6.51671 -1.83778,-12.59881 -5.0172,-17.74399c-0.23684,-0.38327 -0.01837,-0.27688 -0.01837,-0.27688l-60.81557,22.16874c0,0 -0.16841,-0.7822 -0.05858,0.09716c2.06041,16.49732 15.97039,29.25498 32.82331,29.25498c18.27312,0 33.08642,-14.99847 33.08642,-33.5z" fill="url(#color-3)" stroke="#ffb25a" stroke-width="0" stroke-linecap="butt"/><path d="M190.50586,213.76065l-0.25,-48.25c0,0 -0.77157,-9.83506 2.39416,-14.76533c3.29959,-5.13873 10.59582,-6.1309 13.36064,-6.10963c2.51198,0.01933 9.79611,0.15394 13.1319,4.85029c3.85622,5.42905 3.6133,16.27468 3.6133,16.27468l0.25,48.25" fill="none" stroke="url(#color-4)" stroke-width="8" stroke-linecap="round"/><path d="M223.00586,214.26065l-0.25,-48.25c0,0 -0.77157,-9.83506 2.39416,-14.76533c3.29959,-5.13873 10.59582,-6.1309 13.36064,-6.10963c2.51198,0.01933 9.79611,0.15394 13.1319,4.85029c3.85622,5.42905 3.61329,16.27468 3.61329,16.27468l0.25,48.25" fill="none" stroke="url(#color-5)" stroke-width="8" stroke-linecap="round"/><path d="M271.57703,179.11634c1.30413,6.38488 4.3219,11.97617 8.46667,16.38099c0.30875,0.32813 0.07341,0.2676 0.07341,0.2676l55.14889,-33.8908c0,0 0.32154,0.73268 0.03796,-0.10691c-5.3202,-15.75126 -21.50189,-25.46716 -38.01388,-22.09453c-17.90348,3.65685 -29.4156,21.31637 -25.71304,39.44365z" fill="url(#color-6)" stroke="#ffb25a" stroke-width="0" stroke-linecap="butt"/><path d="M274.01758,197.02628c0,0 2.43779,5.96712 8.70593,9.96147c6.54005,4.16761 17.02837,6.36484 22.36746,6.11651c5.02477,-0.23371 14.4214,-2.22446 20.98014,-6.49578c7.81856,-5.09175 12.44646,-12.5822 12.44646,-12.5822" fill="none" stroke="url(#color-7)" stroke-width="8" stroke-linecap="round"/></g></g></svg>
